<?xml version="1.0" encoding="UTF-8" standalone="no"?>
<!-- Created with Inkscape (http://www.inkscape.org/) -->
<svg
   xmlns:dc="http://purl.org/dc/elements/1.1/"
   xmlns:cc="http://creativecommons.org/ns#"
   xmlns:rdf="http://www.w3.org/1999/02/22-rdf-syntax-ns#"
   xmlns:svg="http://www.w3.org/2000/svg"
   xmlns="http://www.w3.org/2000/svg"
   xmlns:xlink="http://www.w3.org/1999/xlink"
   xmlns:sodipodi="http://sodipodi.sourceforge.net/DTD/sodipodi-0.dtd"
   xmlns:inkscape="http://www.inkscape.org/namespaces/inkscape"
   width="640"
   height="640"
   id="svg2"
   sodipodi:version="0.32"
   inkscape:version="0.46"
   sodipodi:docname="ThothLogo03.svg"
   inkscape:output_extension="org.inkscape.output.svg.inkscape"
   version="1.0"
   style="display:inline"
   inkscape:export-filename="/home/arnaud/arnaud/thothLogo/ThothLogo03-16.png"
   inkscape:export-xdpi="2.25"
   inkscape:export-ydpi="2.25">
  <sodipodi:namedview
     id="base"
     pagecolor="#ffffff"
     bordercolor="#dec362"
     borderopacity="1"
     gridtolerance="10000"
     guidetolerance="10"
     objecttolerance="10"
     inkscape:pageopacity="0.0"
     inkscape:pageshadow="2"
     inkscape:zoom="0.66640285"
     inkscape:cx="9.3870849"
     inkscape:cy="347.99716"
     inkscape:document-units="px"
     inkscape:current-layer="layer1"
     showgrid="false"
     inkscape:window-width="1313"
     inkscape:window-height="983"
     inkscape:window-x="309"
     inkscape:window-y="131"
     showguides="false"
     inkscape:guide-bbox="true">
    <sodipodi:guide
       orientation="0,1"
       position="134.71051,743.60199"
       id="guide3317" />
    <sodipodi:guide
       orientation="0,1"
       position="123.70874,473.72824"
       id="guide3319" />
    <sodipodi:guide
       orientation="0,1"
       position="238.03672,634.37371"
       id="guide3436" />
    <sodipodi:guide
       orientation="1,0"
       position="320.11834,802.05475"
       id="guide3438" />
    <sodipodi:guide
       orientation="1,0"
       position="431.51483,1029.5381"
       id="guide3440" />
    <sodipodi:guide
       orientation="0,1"
       position="665.30089,817.29848"
       id="guide3474" />
    <sodipodi:guide
       orientation="0,1"
       position="381.67956,561.08654"
       id="guide4948" />
    <sodipodi:guide
       orientation="0,1"
       position="122.53614,650.79004"
       id="guide4950" />
  </sodipodi:namedview>
  <defs
     id="defs4">
    <linearGradient
       inkscape:collect="always"
       id="linearGradient4912">
      <stop
         style="stop-color:#000000;stop-opacity:1;"
         offset="0"
         id="stop4914" />
      <stop
         style="stop-color:#000000;stop-opacity:0;"
         offset="1"
         id="stop4916" />
    </linearGradient>
    <inkscape:perspective
       id="perspective10"
       inkscape:persp3d-origin="372.04724 : 350.78739 : 1"
       inkscape:vp_z="744.09448 : 526.18109 : 1"
       inkscape:vp_y="0 : 1000 : 0"
       inkscape:vp_x="0 : 526.18109 : 1"
       sodipodi:type="inkscape:persp3d" />
    <inkscape:perspective
       sodipodi:type="inkscape:persp3d"
       inkscape:vp_x="0 : 526.18109 : 1"
       inkscape:vp_y="0 : 1000 : 0"
       inkscape:vp_z="744.09448 : 526.18109 : 1"
       inkscape:persp3d-origin="372.04724 : 350.78739 : 1"
       id="perspective2447" />
    <filter
       inkscape:label="filter1"
       id="filter2480" />
    <inkscape:perspective
       id="perspective3451"
       inkscape:persp3d-origin="372.04724 : 350.78739 : 1"
       inkscape:vp_z="744.09448 : 526.18109 : 1"
       inkscape:vp_y="0 : 1000 : 0"
       inkscape:vp_x="0 : 526.18109 : 1"
       sodipodi:type="inkscape:persp3d" />
    <radialGradient
       inkscape:collect="always"
       xlink:href="#linearGradient4912"
       id="radialGradient4918"
       cx="235.27956"
       cy="310.42883"
       fx="235.27956"
       fy="310.42883"
       r="149.96387"
       gradientTransform="matrix(1,0,0,1.791799,0,-217.79724)"
       gradientUnits="userSpaceOnUse" />
  </defs>
  <metadata
     id="metadata7">
    <rdf:RDF>
      <cc:Work
         rdf:about="">
        <dc:format>image/svg+xml</dc:format>
        <dc:type
           rdf:resource="http://purl.org/dc/dcmitype/StillImage" />
        <dc:title>Thoth blog engine logo</dc:title>
        <dc:date>oct, 20th 2008</dc:date>
        <dc:creator>
          <cc:Agent>
            <dc:title>Arnaud Meuret</dc:title>
          </cc:Agent>
        </dc:creator>
        <dc:rights>
          <cc:Agent>
            <dc:title>Arnaud Meuret</dc:title>
          </cc:Agent>
        </dc:rights>
        <cc:license
           rdf:resource="http://creativecommons.org/licenses/by/3.0/" />
      </cc:Work>
      <cc:License
         rdf:about="http://creativecommons.org/licenses/by/3.0/">
        <cc:permits
           rdf:resource="http://creativecommons.org/ns#Reproduction" />
        <cc:permits
           rdf:resource="http://creativecommons.org/ns#Distribution" />
        <cc:requires
           rdf:resource="http://creativecommons.org/ns#Notice" />
        <cc:requires
           rdf:resource="http://creativecommons.org/ns#Attribution" />
        <cc:permits
           rdf:resource="http://creativecommons.org/ns#DerivativeWorks" />
      </cc:License>
    </rdf:RDF>
  </metadata>
  <g
     inkscape:groupmode="layer"
     id="layer3"
     inkscape:label="Guides"
     style="display:none"
     transform="translate(-4.6628864e-7,-0.1745821)">
    <path
       transform="translate(-53.616881,-15.948507)"
       sodipodi:type="arc"
       style="opacity:1;fill:none;fill-opacity:1;stroke:#000000;stroke-opacity:1;display:inline"
       id="path3464"
       sodipodi:cx="372.69907"
       sodipodi:cy="308.76019"
       sodipodi:rx="289.80786"
       sodipodi:ry="289.80786"
       d="M 662.50693,308.76019 A 289.80786,289.80786 0 1 1 82.891205,308.76019 A 289.80786,289.80786 0 1 1 662.50693,308.76019 z" />
  </g>
  <g
     inkscape:groupmode="layer"
     id="layer2"
     inkscape:label="Disc"
     style="opacity:1;display:inline"
     transform="translate(-53.616881,-16.123089)">
    <path
       style="opacity:1;fill:#ff6300;fill-opacity:1;stroke:none;stroke-opacity:1;display:inline"
       d="M 662.77569,340.7602 C 662.77569,260.94692 621.96216,181.2623 568.42677,126.86197 C 527.46151,85.23486 426.31595,36.78039 373.73522,91.09783 C 307.12503,37.15847 224.91974,85.28881 176.90702,126.63705 C 124.50752,171.76317 82.659686,260.94691 82.659686,340.76019 C 82.659686,500.38675 213.97057,629.93876 373.59714,629.93876 C 533.2237,629.93876 662.77569,500.38676 662.77569,340.7602 z"
       id="path2676"
       sodipodi:nodetypes="cscscsc" />
  </g>
  <g
     id="layer1"
     inkscape:groupmode="layer"
     inkscape:label="Layer 1"
     style="display:inline"
     transform="translate(-53.616881,-16.123089)">
    <path
       style="fill:#d40000"
       d="M 357.66681,130.76897 C 353.242,91.232284 423.32116,9.789398 479.02453,61.3481 C 517.41354,96.88074 383.60542,104.43889 357.66681,130.76897 z"
       id="path2459"
       sodipodi:nodetypes="csc" />
    <path
       sodipodi:nodetypes="cccccczcc"
       id="path4954"
       d="M 373.12117,106.99283 C 384.1934,55.71959 456.10765,29.034436 485.13171,74.363996 C 532.50376,144.72606 618.10992,177.85291 662.37896,251.17754 C 679.75038,274.10253 717.29372,344.44906 671.6804,291.2783 C 640.39124,241.76808 593.86548,207.0978 543.09045,179.50866 C 507.34372,151.80578 420.97326,137.78888 436.6631,213.97251 C 467.38213,272.35181 486.01849,353.52789 482.56896,397.61554 C 479.11943,441.7032 439.92895,605.18293 381.11319,605.18293 C 439.92895,422.7647 321.3493,263.20428 373.12117,106.99283 z"
       style="fill:#605a55" />
    <path
       sodipodi:type="arc"
       style="fill:#ff6600;fill-opacity:1;stroke:#000000;stroke-opacity:1;display:inline"
       id="path3457"
       sodipodi:cx="327.7402"
       sodipodi:cy="77.349724"
       sodipodi:rx="17.002623"
       sodipodi:ry="17.002623"
       d="M 344.74283,77.349724 A 17.002623,17.002623 0 1 1 310.73758,77.349724 A 17.002623,17.002623 0 1 1 344.74283,77.349724 z"
       transform="translate(96.445913,24.189069)" />
    <path
       id="path2455"
       style="fill:#26231d;stroke:none;stroke-opacity:1"
       d="M 380.90723,605.46135 C 439.72299,423.04312 389.1154,445.98847 372.69907,336.76019 C 364.73353,283.76034 347.55921,81.505767 418.98683,56.543603 C 444.16899,58.279597 451.41453,64.787648 468.54536,90.415453 C 474.43494,99.2263 477.19235,107.19937 480.29448,118.37238 C 481.13145,121.38691 528.52904,145.39135 568.50374,177.96057 C 592.77113,197.73233 646.66302,240.31924 661.18442,263.02571 C 651.85557,247.29615 579.8367,189.34516 566.90065,179.53175 C 524.86211,147.64091 474.9369,126.98691 473.86965,134.07462 C 472.18377,145.27074 457.165,162.91241 439.03632,165.91381 C 417.07629,213.343 464.37077,260.60112 456.80504,308.911 C 438.29358,427.11328 439.72299,605.46135 380.90723,605.46135 z M 437.31118,100.00731 C 442.25378,95.064697 438.12036,85.407077 429.89318,82.675377 C 420.18124,79.450687 415.12546,91.063107 422.70895,99.17656 C 425.96547,102.66067 430.66146,103.55874 426.53593,98.7917 C 421.71395,93.219917 428.29623,85.250387 433.63461,90.081547 C 437.07908,93.198757 436.4,99.6641 431.46335,101.22882 C 428.91727,102.03582 429.1166,102.4517 432.44996,101.92883 C 434.36759,101.62803 436.55514,100.76334 437.31118,100.00731 z"
       sodipodi:nodetypes="cscssscsscsccssssssc" />
    <path
       id="path3430"
       d="M 389.68661,130.76897 C 400.74462,83.76994 314.55404,7.089887 269.72604,64.741933 C 237.32303,106.41455 354.36724,72.77884 389.68661,130.76897 z"
       style="fill:#d40000"
       sodipodi:nodetypes="csc" />
    <path
       sodipodi:nodetypes="ccscccszcc"
       id="path3432"
       d="M 373.9403,106.99283 C 362.86807,55.719593 290.95382,29.034438 261.92976,74.363999 C 235.87886,109.47872 264.98604,91.891819 226.00645,122.68178 C 193.82483,148.10203 109.97239,214.63142 84.682508,251.17754 C 67.311088,274.10253 29.767748,344.44906 75.381068,291.2783 C 106.67023,241.76808 153.19599,207.0978 203.97102,179.50866 C 239.71775,151.80578 334.0093,141.16144 308.89778,213.97251 C 287.60043,275.72437 261.04298,353.52789 264.49251,397.61554 C 267.94204,441.7032 305.96997,606.42665 367.93146,606.42665 C 305.96997,424.00842 425.70722,263.18934 373.9403,106.99283 z"
       style="fill:#605a55" />
    <path
       sodipodi:type="arc"
       style="fill:#ff6600;fill-opacity:1;stroke:#000000;stroke-opacity:1"
       id="path3442"
       sodipodi:cx="327.7402"
       sodipodi:cy="77.349724"
       sodipodi:rx="17.002623"
       sodipodi:ry="17.002623"
       d="M 344.74283,77.349724 A 17.002623,17.002623 0 1 1 310.73758,77.349724 A 17.002623,17.002623 0 1 1 344.74283,77.349724 z"
       transform="translate(-1.2530518e-6,26.534257)" />
    <path
       sodipodi:nodetypes="cscssscssssccssssssc"
       d="M 368.00869,606.63394 C 306.0472,424.21571 355.11015,445.98847 372.69907,336.76019 C 381.21967,283.84674 405.79659,87.508145 334.36897,62.545981 C 320.44126,60.530491 295.97368,75.840835 278.05776,102.04506 C 270.24109,113.4779 271.45324,111.45906 264.80805,121.37357 C 261.41331,126.43847 225.15143,143.42089 183.1335,175.47775 C 141.11557,207.53461 99.330129,247.00768 85.815699,263.0637 C 97.17576,251.65414 137.34053,212.33913 180.63251,179.98042 C 223.92448,147.62171 272.41652,126.98691 273.48377,134.07462 C 275.16965,145.27074 284.4962,148.96071 301.56443,163.66292 C 336.9056,194.10504 277.95897,263.80442 290.54838,308.911 C 322.80971,424.50007 306.0472,606.63394 368.00869,606.63394 z M 316.41976,110.13632 C 311.47716,105.19371 315.61058,95.536088 323.83776,92.804388 C 333.5497,89.579698 338.60548,101.19212 331.02199,109.30557 C 327.76547,112.78968 323.06948,113.68775 327.19501,108.92071 C 332.01699,103.34893 325.43471,95.379398 320.09633,100.21056 C 316.65186,103.32777 317.33094,109.79311 322.26759,111.35783 C 324.81367,112.16483 324.61434,112.58071 321.28098,112.05784 C 319.36335,111.75704 317.1758,110.89235 316.41976,110.13632 z"
       style="fill:#26231d;stroke:url(#radialGradient4918);stroke-opacity:1"
       id="path3434" />
    <path
       style="font-size:144px;font-style:normal;font-variant:normal;font-weight:bold;font-stretch:normal;fill:#ffffff;fill-opacity:1;stroke:none;stroke-width:1px;stroke-linecap:butt;stroke-linejoin:miter;stroke-opacity:1;font-family:Tholoth;-inkscape-font-specification:Tholoth Bold"
       d="M 173.14435,266.96875 C 170.96638,267.9988 170.86411,270.78766 170.7764,272.86625 C 171.20374,275.39423 173.965,276.27009 175.83984,277.52109 C 179.92547,279.91209 184.62716,282.0972 186.92872,286.48312 C 188.78418,291.01214 187.30715,295.90961 186.97855,300.57492 C 186.7734,302.12286 186.56825,303.67081 186.3631,305.21875 C 183.37339,305.97213 180.25698,305.04509 177.25395,305.73148 C 166.4023,306.5747 155.45798,307.8278 144.59816,306.38813 C 129.68731,305.03614 114.81498,303.2707 99.967181,301.36018 C 96.98054,300.93654 93.486227,300.40664 91.766213,297.59498 C 89.53483,294.28384 90.181682,290.13861 89.519351,286.40625 C 89.32548,285.58431 88.978771,284.33351 87.863101,284.6875 C 86.530778,285.05187 86.258477,286.55159 86.334598,287.73266 C 84.661137,302.945 83.004716,318.15919 81.363101,333.375 C 81.637126,335.33091 85.057888,334.78814 84.800601,332.875 C 85.875028,328.96665 86.462773,324.43065 89.767328,321.68311 C 93.427202,319.29886 97.966031,320.31199 102.04513,320.48559 C 118.81277,322.0188 135.58687,323.63093 152.24559,326.10262 C 159.55551,327.35342 166.51134,330.03157 173.36411,332.77661 C 176.0154,333.74915 178.67934,334.70219 181.4256,335.375 C 181.84019,337.61845 181.02652,339.85153 181.0723,342.10267 C 180.60455,346.09811 180.54176,350.26076 179.00987,354.02587 C 176.80554,357.41035 172.59266,358.25612 169.19318,359.94934 C 166.75455,360.98677 163.95438,361.69767 162.14599,363.75165 C 160.90188,365.79187 162.60073,368.68157 164.9467,368.76309 C 170.98938,370.34596 177.22302,370.97191 183.39004,371.87166 C 186.45047,372.18963 189.63464,372.52134 192.64743,371.81663 C 195.35664,370.36523 195.61779,366.96184 196.20685,364.28125 C 199.03929,350.29576 201.79114,336.20291 202.14696,321.89456 C 202.80144,309.05464 202.99556,296.18304 204.32957,283.38645 C 204.57625,279.84794 205.16017,276.27216 204.85771,272.73652 C 203.88178,270.1729 200.87989,269.38944 198.40188,269.31168 C 190.08078,267.7816 181.61798,266.75228 173.14435,266.96875 z M 550.03125,276.96875 C 548.30174,276.95443 547.06194,278.77276 547.35531,280.40049 C 546.15991,290.54006 545.50167,300.79783 546.50323,310.98484 C 546.90696,316.1405 546.93233,321.35872 547.5505,326.47601 C 549.0116,329.18705 553.70267,328.54765 554.42759,325.5563 C 555.81,323.06381 556.59478,320.12447 558.54225,318.01996 C 564.22326,315.46429 570.59596,315.79161 576.61266,314.67233 C 584.30427,313.6878 591.99589,312.70328 599.6875,311.71875 C 601.63735,312.56566 601.20367,315.03259 601.25,316.75 C 601.10454,332.21018 600.83366,347.66921 600.4375,363.125 C 587.19879,361.6855 573.78833,360.67557 560.96875,356.84375 C 558.84749,356.02208 557.79484,353.84917 557.15198,351.81106 C 556.10912,349.19227 554.87984,346.00342 551.84375,345.21875 C 548.75431,344.39062 545.19096,346.79675 545.14705,350.07726 C 542.90273,360.47126 542.89361,371.22181 544.1399,381.74592 C 544.73038,386.6272 545.24059,391.54988 546.26411,396.35348 C 547.15914,398.6576 550.04171,400.00354 552.29142,398.79935 C 554.60438,397.77029 555.4275,395.15744 556.11317,392.89836 C 556.90165,391.00193 557.6959,389.06872 559.40625,387.78125 C 562.06779,386.31418 565.42691,385.86406 568.53308,385.45829 C 579.5552,383.98795 590.62849,382.8562 601.74162,382.36857 C 616.94791,381.69896 632.19604,381.58516 647.39511,382.47329 C 650.30746,382.83746 653.77849,382.61611 655.9375,384.96875 C 658.59927,387.84304 658.26075,392.06577 659.84375,395.4375 C 660.22055,396.32827 661.38565,396.98125 662.09801,396.05824 C 663.12318,394.86517 662.34535,393.23608 662.5625,391.83287 C 662.53419,377.80519 662.73351,363.77765 662.625,349.75 C 662.16258,347.96344 659.03008,348.80964 659.40625,350.5625 C 658.63434,354.40216 657.98522,358.75647 654.78125,361.40625 C 650.84213,363.77569 646.08309,362.91327 641.72349,363.34807 C 631.19357,363.61972 620.6548,363.83013 610.125,363.4375 C 608.43804,362.66121 609.02339,360.51714 608.8407,359.03597 C 608.49367,343.98688 608.77255,328.92898 608.7222,313.88182 C 608.45089,312.76576 609.30528,311.43055 610.55311,311.68994 C 623.58964,311.84498 636.65334,311.39032 649.6651,312.38526 C 652.6096,312.58774 655.94984,313.52663 657.37069,316.37891 C 659.05081,319.44778 658.93571,323.05922 659.64425,326.38226 C 660.54743,327.99905 663.47918,326.83203 662.93483,325.00471 C 662.72063,311.52739 663.02846,298.04873 662.9375,284.57051 C 662.87453,282.99197 663.06107,281.34878 662.84872,279.80895 C 661.89759,278.27355 659.08636,279.27643 659.49855,281.11736 C 658.7992,284.75428 658.68478,289.03337 655.66243,291.63564 C 651.75597,294.42635 646.72137,293.78299 642.19691,293.94178 C 621.09107,294.20018 599.84936,294.33933 578.9466,290.99029 C 572.36396,289.96034 565.68218,289.17877 559.28327,287.30811 C 555.67114,284.9622 556.12855,279.51726 552.37145,277.31747 C 551.66081,276.9625 550.81408,276.79794 550.03125,276.96875 z M 204.6875,414.53125 C 202.40777,415.58929 200.25801,418.18144 201.29652,420.80179 C 202.07947,423.82805 204.37336,426.79729 203.36326,430.04205 C 201.25074,434.71121 197.7531,438.54638 195.0585,442.86732 C 189.11649,451.45954 182.53547,459.64399 174.95736,466.85514 C 164.30114,477.55646 153.37489,488.00397 142.0354,497.9764 C 139.68005,499.79193 136.30604,500.33386 133.64512,498.86373 C 130.99949,497.5909 128.79585,495.53773 126.0625,494.4375 C 124.53604,494.55555 124.53395,496.83024 125.77706,497.3872 C 135.59322,508.52201 146.4388,518.68252 156.65625,529.4375 C 158.03055,530.46474 159.99695,528.46046 158.90227,527.0926 C 157.32753,523.63802 154.29753,520.57733 154.375,516.5625 C 154.61221,512.61898 157.67792,509.77312 160.30364,507.1673 C 168.45657,498.85559 176.74511,490.67885 184.96875,482.4375 C 186.63667,481.73725 187.57551,483.75191 188.59942,484.6676 C 199.77891,496.05598 210.82605,507.57371 222.0625,518.90625 C 212.0429,528.46234 202.31674,538.33844 191.98876,547.56312 C 189.34468,549.6375 185.48453,550.74209 182.40625,548.9375 C 179.822,547.68017 177.82439,545.53463 175.375,544.0625 C 173.73202,543.77757 172.59528,546.4303 174.1875,547.21875 C 184.8587,558.20313 195.51353,569.20373 206.28125,580.09375 C 206.95161,579.22435 208.05785,578.71866 208.46875,577.65625 C 205.90971,574.19758 202.70942,570.62538 202.56013,566.10074 C 203.09637,561.80357 206.71488,558.93395 209.54162,556.02458 C 221.28667,544.54292 232.76554,532.7708 244.91842,521.71938 C 254.27899,514.83948 263.35075,507.51281 273.20163,501.33999 C 276.28382,500.06097 279.41409,501.91208 282.1875,503.125 C 284.14632,503.89639 287.04381,503.89322 288.03906,501.67501 C 289.01764,499.42635 287.48618,497.16246 286.0566,495.52222 C 279.35026,485.94736 271.94967,476.5499 262.22758,469.86064 C 259.7019,468.07762 257.35102,465.7862 254.34844,464.875 C 251.2594,464.83674 249.34698,468.74602 250.79893,471.33239 C 251.73412,474.26919 253.78727,477.27796 252.71875,480.46875 C 250.81261,484.28495 247.81751,487.39097 245.47235,490.9245 C 240.04233,498.28116 234.52701,505.58568 228.5,512.46875 C 226.67031,513.31191 225.39475,511.28036 224.27773,510.1825 C 213.46001,499.30417 202.80886,488.262 192,477.375 C 191.15765,476.06441 192.63069,474.8387 193.67412,474.26095 C 203.55118,466.3355 213.80528,458.86358 224.53125,452.125 C 227.7111,450.97577 230.73519,453.09053 233.63473,454.10786 C 235.90264,455.11678 239.19505,454.43186 240.00726,451.82923 C 240.86849,449.72321 239.61021,447.54303 238.28763,445.95121 C 233.36601,438.52965 228.34336,430.99612 221.48654,425.19314 C 216.71563,421.07064 211.52183,417.37475 205.90625,414.5 C 205.4875,414.38146 205.0789,414.252 204.6875,414.53125 z M 529.1875,425.46875 C 526.4259,426.23821 524.37316,428.50993 522.37994,430.436 C 519.61251,433.58644 516.79187,436.68453 513.8831,439.70433 C 507.97573,446.07722 502.11682,452.31437 495.91122,458.43967 C 485.4669,468.9369 473.38007,477.58284 463.02675,488.18556 C 460.80474,490.617 458.2864,492.93352 456.84375,495.9375 C 455.93515,498.10595 457.74598,500.15912 459.1875,501.59375 C 465.10854,507.75683 471.24074,513.73305 477.71875,519.3125 C 480.50767,520.67414 484.03055,517.75654 483.30337,514.76162 C 482.86952,511.46003 481.09445,508.52022 480.58234,505.22849 C 479.56504,501.16334 479.6404,496.54205 482.11718,492.99264 C 485.14032,488.18674 488.90177,483.91503 492.15625,479.28125 C 492.76719,478.81639 493.19292,477.48573 494.0625,478.1875 C 495.87954,479.76502 497.37981,481.67517 499.16764,483.29264 C 513.7328,497.94306 528.78626,512.10997 542.96886,527.1381 C 547.4689,531.83566 551.91909,536.59832 556.09195,541.58725 C 557.9809,544.06268 560.54295,546.80475 559.9722,550.18068 C 559.2214,554.50174 555.02429,557.14001 554.0625,561.375 C 554.39612,562.59855 556.27723,562.31624 556.625,561.25 C 568.40434,550.91384 579.46024,539.79392 590.84375,529.03125 C 591.97485,527.45173 589.22199,525.50443 588.0694,527.07417 C 584.62134,529.45692 581.02986,532.45982 576.59375,532.34375 C 572.32825,531.75924 569.55461,528.11207 566.6875,525.28125 C 552.58842,510.94057 539.04285,496.07339 525.47322,481.23513 C 519.9174,475.16377 514.21251,469.21519 508.6875,463.125 C 508.66412,462.12398 510.02688,461.68977 510.70434,461.12759 C 513.81137,459.06349 516.79391,456.84388 519.99503,455.01745 C 522.80823,453.3155 525.85642,451.77328 529.0565,450.79072 C 534.18259,450.08083 538.79745,452.80858 543.5916,454.20922 C 545.4054,454.75445 547.48092,455.57037 549.34846,454.72583 C 551.61555,453.66199 553.21674,450.69672 551.90625,448.3125 C 546.92771,441.49119 541.4364,435.04664 535.38493,429.16618 C 533.79377,427.70286 532.13847,425.99954 529.96875,425.46875 C 529.70975,425.44689 529.44441,425.4044 529.1875,425.46875 z M 372.59375,510 C 366.06791,510.38831 359.55197,511.61781 353.40625,513.875 C 345.04118,517.15681 337.78515,522.90349 332.00571,529.72219 C 326.57026,536.26092 322.78406,544.12563 321.00438,552.43632 C 317.14763,568.3277 318.82942,585.69028 326.44049,600.23839 C 332.45992,611.54493 342.97473,620.16995 354.95773,624.52772 C 362.6471,627.40931 370.98121,628.34491 379.14225,627.61922 C 389.83271,626.92434 400.50118,623.45558 408.97742,616.78774 C 420.10236,608.239 427.59679,595.20508 429.57458,581.32976 C 431.09912,571.16331 430.6996,560.67289 428.22086,550.68927 C 425.10904,538.77121 418.12678,527.77862 408.16085,520.44455 C 400.18434,514.55361 390.51211,511.21557 380.67762,510.28417 C 377.99281,510.00874 375.29124,509.92486 372.59375,510 z M 376.09375,516.1875 C 387.72646,516.66967 398.62767,524.01788 403.83773,534.36916 C 408.7561,543.57889 410.2248,554.16058 410.71799,564.46115 C 411.30376,577.37209 409.58741,590.66291 403.875,602.375 C 400.32535,609.40034 394.89382,615.85838 387.489,618.94879 C 377.25845,623.38042 364.64305,622.37533 355.57594,615.7426 C 348.63,610.73885 344.56763,602.73911 342.24486,594.68437 C 339.03745,583.61747 337.79377,571.92886 339.0641,560.45608 C 340.18155,549.8 343.26698,539.22678 348.84375,530.03125 C 352.52966,524.46927 357.99378,520.05521 364.36982,517.98738 C 368.11645,516.67114 372.12102,516.01633 376.09375,516.1875 z"
       id="text4920"
       sodipodi:nodetypes="ccccccccccccccccccccccccccccccccccccccccccccccccccccccccccccccccccccccccccccccccccccccccccccccccccccccccccccccccccccccccccccccccccccccccccccccccccccccccccccccccccccccccccccccccccccccc" />
  </g>
</svg>
